<svg width="32" height="32" xmlns="http://www.w3.org/2000/svg">
 <title/>
 <desc/>

 <g>
  <title>background</title>
  <rect fill="none" id="canvas_background" height="402" width="582" y="-1" x="-1"/>
 </g>
 <g>
  <title>Layer 1</title>
  <path fill="#ffffff" id="wind-turbine" d="m18.385139,15.14892c4.049431,1.810379 6.23218,2.64905 6.23218,2.64905c0,0 -2.47176,-1.97024 -5.414068,-4.071609c-0.136711,0.54978 -0.425072,1.03963 -0.818111,1.42256l0,0l0,0zm-5.006579,-1.42966c-3.63771,2.632449 -5.47838,4.122039 -5.47838,4.122039c0,0 2.98517,-1.17239 6.30512,-2.685699c-0.39824,-0.38555 -0.68996,-0.880469 -0.82674,-1.436339l0,0l0,0zm5.881049,-1.160211c2.55538,1.814671 8.702381,6.27993 8.30562,6.967131c-0.395809,0.68557 -7.304129,-2.388861 -10.166019,-3.699921l0,0l0.89257,15.17374c0,0 -0.5,1 -2,1c-1.5,0 -2,-1 -2,-1l0.892579,-15.17374l0,0c-2.86189,1.31106 -9.770209,4.38549 -10.166029,3.699921c-0.39676,-0.687201 5.75025,-5.15246 8.30563,-6.967131c0.11257,-0.764239 0.51333,-1.43471 1.08832,-1.897449c0.29497,-3.12941 1.08724,-10.6616 1.8795,-10.6616c0.792269,0 1.58453,7.53219 1.879509,10.6616c0.574991,0.46274 0.97574,1.13321 1.08832,1.897449l0,0l0,0zm-3.086349,3.43865l-0.87086,14.678871c0,0 0.19379,0.323429 0.989381,0.323429c0.795599,0 0.999699,-0.323429 0.999699,-0.323429l-0.87995,-14.678921c-0.039719,0.00156 -0.079639,0.00235 -0.119749,0.00235c-0.03969,0 -0.079201,-0.00077 -0.118521,-0.0023l0,0l0,0zm0.94817,-5.881499c-0.46047,-4.4606 -0.829649,-6.79625 -0.829649,-6.79625c0,0 -0.476561,3.16673 -0.8259,6.79517c0.26238,-0.07497 0.539449,-0.11512 0.8259,-0.11512c0.287819,0 0.56617,0.04053 0.829649,0.1162l0,0l0,0zm-0.829649,4.8838c1.10457,0 2,-0.89543 2,-2c0,-1.10457 -0.89543,-2 -2,-2c-1.10457,0 -2,0.89543 -2,2c0,1.10457 0.89543,2 2,2l0,0z"/>
 </g>
</svg>