<svg width="400" height="300" xmlns="http://www.w3.org/2000/svg">
 <title/>
 <desc/>

 <g>
  <title>background</title>
  <rect fill="none" id="canvas_background" height="302" width="402" y="-1" x="-1"/>
 </g>
 <g>
  <title>Layer 1</title>
  <path fill="#fffff2" id="cloud-fog" d="m0.543888,202.728653c-0.140429,-1.804474 -0.211903,-3.627792 -0.211903,-5.467331c0,-29.336777 18.306221,-54.620346 44.477127,-65.635818l0,0c-0.11665,-1.947891 -0.175728,-3.910736 -0.175728,-5.886917c0,-1.898087 0.054489,-3.783966 0.162144,-5.656021l0,0c-0.106178,-0.482513 -0.162144,-0.983032 -0.162144,-1.496262c0,-0.867859 0.167461,-1.709244 0.473286,-2.491699c5.009163,-50.776718 49.165409,-90.487881 102.896656,-90.487881c33.934128,0 64.049072,15.839157 82.895981,40.301632c12.390015,-7.414043 26.991531,-11.692516 42.624649,-11.692516c44.434723,0 80.535126,34.565212 81.209625,77.452389l0,0c26.11261,11.025391 44.311035,36.245026 44.311035,65.593094c0,1.839417 -0.071869,3.662857 -0.213379,5.467926c0.138916,0.540146 0.213379,1.104172 0.213379,1.684372c0,1.113754 -0.274261,2.183884 -0.761719,3.141693c-5.159332,34.565964 -35.906586,61.228775 -73.065704,61.228775l-251.057793,0c-37.257046,0 -67.952309,-26.623779 -73.075624,-61.265091c-0.478304,-0.93927 -0.751792,-1.992676 -0.751792,-3.105377c0,-0.576492 0.073546,-1.141235 0.211903,-1.684967l0,0zm14.555233,-5.467331c0,-4.937088 0.648565,-9.730545 1.867893,-14.30455l0,0l365.442837,0c1.218842,4.572021 1.867615,9.365189 1.867615,14.30455l-369.178345,0l0,0zm1.867599,14.30455c1.352821,5.074844 3.408396,9.877182 6.059095,14.30455l0,0l353.326723,0c2.650269,-4.42894 4.70462,-9.23172 6.057068,-14.30455l-365.442886,0l0,0zm64.994881,-143.045502c-4.052238,4.385788 -7.645836,9.177505 -10.707642,14.304535l0,0l153.498741,0c-3.061829,-5.127029 -6.655411,-9.918747 -10.707657,-14.304535l-132.083443,0l0,0l0,0zm17.047493,-14.304531c14.033203,-9.038345 30.878799,-14.304558 48.994232,-14.304558c18.115433,0 34.961075,5.266212 48.994263,14.304558l-97.988495,0l0,0l0,0zm-34.437866,42.562603c-1.742062,4.708511 -3.071266,9.607391 -3.945618,14.655609l0,0l275.569183,0c-1.858368,-5.09288 -4.359375,-9.891495 -7.408875,-14.304565l-261.88073,0c-0.815598,0 -1.600037,-0.123154 -2.333961,-0.351044l0,0l0,0zm167.181381,-13.953537c11.413132,-8.94603 25.946152,-14.304535 41.771347,-14.304535c15.825226,0 30.358276,5.358505 41.771362,14.304535l-83.542709,0l0,0l0,0zm-172.352097,42.913681c0,4.873688 0.419399,9.652557 1.225098,14.30455l0,0l278.944946,0c0.267914,-2.348373 0.405548,-4.734802 0.405548,-7.152283c0,-2.417435 -0.137634,-4.803879 -0.405548,-7.152267l-280.170044,0l0,0l0,0zm-23.990532,28.376633c-4.908005,4.141022 -9.103933,9.052338 -12.385923,14.537048l0,0l353.326712,0c-3.285126,-5.487122 -7.48468,-10.398163 -12.394348,-14.537888c-0.593048,0.151947 -1.214996,0.233322 -1.855927,0.233322l-324.824383,0c-0.642963,0 -1.268509,-0.080856 -1.866131,-0.232483l0,0l0,0zm-0.264927,86.059769c10.428265,8.902618 24.112675,14.304565 39.064259,14.304565l250.957985,0c14.978729,0 28.656189,-5.406555 39.073029,-14.304565l-329.095272,0l0,0l0,0z"/>
 </g>
</svg>